<svg width="65" height="41" viewBox="0 0 65 41" fill="none" xmlns="http://www.w3.org/2000/svg">
<g filter="url(#filter0_d_5_26)">
<mask id="path-1-outside-1_5_26" maskUnits="userSpaceOnUse" x="1.00049" y="-7.24792e-05" width="63" height="37" fill="black">
<rect fill="white" x="1.00049" y="-7.24792e-05" width="63" height="37"/>
<path d="M47.1284 4.04192C48.947 3.79503 50.818 4.64137 51.7925 6.32903L57.7505 16.6493C60.3239 21.1066 58.7967 26.8064 54.3394 29.3798L50.2026 31.7685C47.9741 33.055 45.1242 32.2918 43.8374 30.0634L40.5835 24.4277H24.6421L21.1636 30.4521C19.8768 32.6804 17.0269 33.4438 14.7983 32.1572L10.6616 29.7685C6.20462 27.1951 4.67745 21.4962 7.25049 17.039L13.2095 6.7177C13.3245 6.51855 13.452 6.33054 13.5903 6.1552C14.4222 4.88249 15.8597 4.04192 17.4937 4.04192H47.1284Z"/>
</mask>
<path d="M47.1284 4.04192C48.947 3.79503 50.818 4.64137 51.7925 6.32903L57.7505 16.6493C60.3239 21.1066 58.7967 26.8064 54.3394 29.3798L50.2026 31.7685C47.9741 33.055 45.1242 32.2918 43.8374 30.0634L40.5835 24.4277H24.6421L21.1636 30.4521C19.8768 32.6804 17.0269 33.4438 14.7983 32.1572L10.6616 29.7685C6.20462 27.1951 4.67745 21.4962 7.25049 17.039L13.2095 6.7177C13.3245 6.51855 13.452 6.33054 13.5903 6.1552C14.4222 4.88249 15.8597 4.04192 17.4937 4.04192H47.1284Z" fill="#8D99AE"/>
<path d="M47.1284 4.04192V8.04192H47.3987L47.6665 8.00556L47.1284 4.04192ZM51.7925 6.32903L55.2566 4.32914L55.2565 4.32886L51.7925 6.32903ZM57.7505 16.6493L54.2863 18.6492L54.2864 18.6493L57.7505 16.6493ZM54.3394 29.3798L52.3394 25.9157L52.3391 25.9158L54.3394 29.3798ZM50.2026 31.7685L52.2025 35.2326L52.2028 35.2325L50.2026 31.7685ZM43.8374 30.0634L40.3733 32.0635L40.3734 32.0636L43.8374 30.0634ZM40.5835 24.4277L44.0476 22.4276L42.8929 20.4277H40.5835V24.4277ZM24.6421 24.4277V20.4277H22.3328L21.1781 22.4275L24.6421 24.4277ZM21.1636 30.4521L24.6275 32.4524L24.6276 32.4522L21.1636 30.4521ZM14.7983 32.1572L12.7981 35.6211L12.7983 35.6213L14.7983 32.1572ZM10.6616 29.7685L12.6618 26.3045L12.6617 26.3044L10.6616 29.7685ZM7.25049 17.039L3.78638 15.039L3.78628 15.0392L7.25049 17.039ZM13.2095 6.7177L9.74537 4.7177L9.74537 4.7177L13.2095 6.7177ZM13.5903 6.1552L16.7302 8.63334L16.8409 8.49312L16.9386 8.34359L13.5903 6.1552ZM47.1284 4.04192L47.6665 8.00556C47.9339 7.96926 48.1946 8.0974 48.3285 8.3292L51.7925 6.32903L55.2565 4.32886C53.4414 1.18535 49.9601 -0.379189 46.5903 0.0782771L47.1284 4.04192ZM51.7925 6.32903L48.3283 8.32892L54.2863 18.6492L57.7505 16.6493L61.2147 14.6494L55.2566 4.32914L51.7925 6.32903ZM57.7505 16.6493L54.2864 18.6493C55.7552 21.1935 54.8835 24.4468 52.3394 25.9157L54.3394 29.3798L56.3394 32.8439C62.7098 29.1659 64.8926 21.0198 61.2146 14.6493L57.7505 16.6493ZM54.3394 29.3798L52.3391 25.9158L48.2024 28.3045L50.2026 31.7685L52.2028 35.2325L56.3396 32.8438L54.3394 29.3798ZM50.2026 31.7685L48.2028 28.3043C47.8868 28.4867 47.4832 28.3781 47.3014 28.0632L43.8374 30.0634L40.3734 32.0636C42.7651 36.2055 48.0614 37.6233 52.2025 35.2326L50.2026 31.7685ZM43.8374 30.0634L47.3015 28.0634L44.0476 22.4276L40.5835 24.4277L37.1194 26.4277L40.3733 32.0635L43.8374 30.0634ZM40.5835 24.4277V20.4277H24.6421V24.4277V28.4277H40.5835V24.4277ZM24.6421 24.4277L21.1781 22.4275L17.6996 28.4519L21.1636 30.4521L24.6276 32.4522L28.1061 26.4278L24.6421 24.4277ZM21.1636 30.4521L17.6997 28.4518C17.5176 28.767 17.114 28.8753 16.7983 28.6931L14.7983 32.1572L12.7983 35.6213C16.9397 38.0123 22.2359 36.5939 24.6275 32.4524L21.1636 30.4521ZM14.7983 32.1572L16.7986 28.6932L12.6618 26.3045L10.6616 29.7685L8.66141 33.2325L12.7981 35.6211L14.7983 32.1572ZM10.6616 29.7685L12.6617 26.3044C10.1177 24.8356 9.2461 21.5828 10.7147 19.0388L7.25049 17.039L3.78628 15.0392C0.108806 21.4095 2.29155 29.5546 8.66153 33.2325L10.6616 29.7685ZM7.25049 17.039L10.7146 19.039L16.6736 8.7177L13.2095 6.7177L9.74537 4.7177L3.78638 15.039L7.25049 17.039ZM13.2095 6.7177L16.6736 8.7177C16.6935 8.68314 16.713 8.65516 16.7302 8.63334L13.5903 6.1552L10.4505 3.67707C10.1909 4.00591 9.95538 4.35396 9.74537 4.7177L13.2095 6.7177ZM13.5903 6.1552L16.9386 8.34359C17.0626 8.1539 17.2656 8.04192 17.4937 8.04192V4.04192V0.0419197C14.4539 0.0419197 11.7817 1.61107 10.2421 3.96681L13.5903 6.1552ZM17.4937 4.04192V8.04192H47.1284V4.04192V0.0419197H17.4937V4.04192Z" fill="#2B2D42" mask="url(#path-1-outside-1_5_26)"/>
</g>
<circle cx="24.4829" cy="17.4378" r="4.6596" fill="#2B2D42"/>
<circle cx="40.209" cy="17.4378" r="4.6596" fill="#2B2D42"/>
<circle cx="46.0336" cy="8.11858" r="1.74735" fill="#2B2D42"/>
<circle cx="18.0759" cy="9.86594" r="2.91225" fill="#2B2D42"/>
<circle cx="49.5283" cy="11.6133" r="1.74735" fill="#2B2D42"/>
<defs>
<filter id="filter0_d_5_26" x="0" y="0" width="65.0012" height="40.7829" filterUnits="userSpaceOnUse" color-interpolation-filters="sRGB">
<feFlood flood-opacity="0" result="BackgroundImageFix"/>
<feColorMatrix in="SourceAlpha" type="matrix" values="0 0 0 0 0 0 0 0 0 0 0 0 0 0 0 0 0 0 127 0" result="hardAlpha"/>
<feOffset dy="2"/>
<feGaussianBlur stdDeviation="1"/>
<feComposite in2="hardAlpha" operator="out"/>
<feColorMatrix type="matrix" values="0 0 0 0 0.168627 0 0 0 0 0.176471 0 0 0 0 0.258824 0 0 0 0.25 0"/>
<feBlend mode="normal" in2="BackgroundImageFix" result="effect1_dropShadow_5_26"/>
<feBlend mode="normal" in="SourceGraphic" in2="effect1_dropShadow_5_26" result="shape"/>
</filter>
</defs>
</svg>
