<svg width="32" height="32" viewBox="0 0 32 32" fill="none" xmlns="http://www.w3.org/2000/svg">
  <path fill-rule="evenodd" clip-rule="evenodd"
    d="M16 0C24.8366 0 32 7.16344 32 16C32 24.8366 24.8366 32 16 32C7.16344 32 0 24.8366 0 16C0 7.16344 7.16344 0 16 0ZM18.1201 25.9092C17.4264 25.9666 16.7189 26 16 26C15.2808 26 14.573 25.9666 13.8789 25.9092C13.9617 26.315 14.0495 26.7028 14.1416 27.0713C14.4929 28.4763 14.8954 29.5425 15.3037 30.2334C15.5076 30.5783 15.6883 30.7877 15.8271 30.9014C15.8936 30.9557 15.9414 30.9805 15.9678 30.9912C15.9805 30.9963 15.989 30.9982 15.9932 30.999C15.997 30.9998 16 31 16 31C16 31 16.003 30.9998 16.0068 30.999C16.011 30.9982 16.0195 30.9963 16.0322 30.9912C16.0586 30.9805 16.1064 30.9557 16.1729 30.9014C16.3117 30.7877 16.4924 30.5783 16.6963 30.2334C17.1046 29.5425 17.5071 28.4763 17.8584 27.0713C17.9505 26.7029 18.0373 26.3149 18.1201 25.9092ZM8.79395 24.9268C9.09247 25.5902 9.41987 26.2122 9.77734 26.7842C11.097 28.8955 12.73 30.2639 14.4639 30.7744C13.8202 29.7016 13.2615 27.9761 12.8398 25.8037C11.4132 25.6251 10.0561 25.3254 8.79395 24.9268ZM23.2051 24.9268C21.9429 25.3254 20.5859 25.6251 19.1592 25.8037C18.7375 27.9763 18.1789 29.7016 17.5352 30.7744C19.2693 30.2641 20.9027 28.8959 22.2227 26.7842C22.5801 26.2123 22.9066 25.5901 23.2051 24.9268ZM1.67285 20.4551C3.13303 25.156 6.84318 28.8656 11.5439 30.3262C9.88902 29.0057 8.49663 26.9728 7.52051 24.4785C5.02622 23.5022 2.99307 22.1102 1.67285 20.4551ZM30.3262 20.4551C29.0058 22.1102 26.973 23.5023 24.4785 24.4785C23.5023 26.973 22.1102 29.0058 20.4551 30.3262C25.1562 28.8658 28.8658 25.1562 30.3262 20.4551ZM18.876 19.9336C17.943 19.9759 16.9819 20 16 20C15.0178 20 14.0564 19.976 13.123 19.9336C13.2391 21.739 13.434 23.4116 13.6885 24.8906C14.4409 24.9615 15.2127 25 16 25C16.787 25 17.5584 24.9615 18.3105 24.8906C18.565 23.4116 18.7599 21.739 18.876 19.9336ZM7.23047 19.3447C7.44731 20.9075 7.81254 22.3727 8.29688 23.7021C9.62634 24.1866 11.0915 24.5516 12.6543 24.7686C12.4119 23.2913 12.228 21.644 12.1182 19.8809C10.355 19.771 8.70772 19.5872 7.23047 19.3447ZM24.7686 19.3447C23.2913 19.5872 21.644 19.771 19.8809 19.8809C19.771 21.644 19.5872 23.2913 19.3447 24.7686C20.9076 24.5517 22.3726 24.1865 23.7021 23.7021C24.1865 22.3726 24.5517 20.9076 24.7686 19.3447ZM1.22461 17.5352C1.73486 19.2694 3.10403 20.9027 5.21582 22.2227C5.78744 22.5799 6.40924 22.9067 7.07227 23.2051C6.67368 21.943 6.37388 20.5858 6.19531 19.1592C4.02272 18.7374 2.2972 18.179 1.22461 17.5352ZM30.7744 17.5352C29.7016 18.1789 27.9763 18.7375 25.8037 19.1592C25.6251 20.5859 25.3254 21.9429 24.9268 23.2051C25.5901 22.9066 26.2123 22.5801 26.7842 22.2227C28.8959 20.9027 30.2641 19.2693 30.7744 17.5352ZM16 13C14.9964 13 14.0165 13.0237 13.0684 13.0684C13.0237 14.0165 13 14.9964 13 16C13 17.0032 13.0238 17.9829 13.0684 18.9307C14.0165 18.9753 14.9964 19 16 19C17.0033 19 17.9828 18.9753 18.9307 18.9307C18.9753 17.9828 19 17.0033 19 16C19 14.9964 18.9753 14.0165 18.9307 13.0684C17.9829 13.0238 17.0032 13 16 13ZM12.0654 13.123C10.26 13.2392 8.58739 13.434 7.1084 13.6885C7.03749 14.4409 7 15.2127 7 16C7 16.7869 7.03755 17.5584 7.1084 18.3105C8.58742 18.565 10.26 18.7599 12.0654 18.876C12.0231 17.943 12 16.9818 12 16C12 15.0178 12.0231 14.0563 12.0654 13.123ZM19.9336 13.123C19.976 14.0564 20 15.0178 20 16C20 16.9819 19.9759 17.943 19.9336 18.876C21.739 18.7599 23.4116 18.565 24.8906 18.3105C24.9615 17.5584 25 16.787 25 16C25 15.2127 24.9615 14.4409 24.8906 13.6885C23.4116 13.434 21.739 13.2391 19.9336 13.123ZM6.08984 13.8789C5.68438 13.9616 5.29687 14.0496 4.92871 14.1416C3.52366 14.4929 2.45753 14.8954 1.7666 15.3037C1.42169 15.5076 1.21228 15.6883 1.09863 15.8271C1.04426 15.8936 1.01952 15.9414 1.00879 15.9678C1.00366 15.9805 1.00182 15.989 1.00098 15.9932C1.0002 15.997 1 16 1 16C1 16 1.0002 16.003 1.00098 16.0068C1.00182 16.011 1.00366 16.0195 1.00879 16.0322C1.01952 16.0586 1.04426 16.1064 1.09863 16.1729C1.21228 16.3117 1.42169 16.4924 1.7666 16.6963C2.45753 17.1046 3.52366 17.5071 4.92871 17.8584C5.29681 17.9504 5.68445 18.0374 6.08984 18.1201C6.03244 17.4264 6 16.7188 6 16C6 15.2808 6.03238 14.573 6.08984 13.8789ZM25.9092 13.8789C25.9666 14.573 26 15.2808 26 16C26 16.7189 25.9666 17.4264 25.9092 18.1201C26.3149 18.0373 26.7029 17.9505 27.0713 17.8584C28.4763 17.5071 29.5425 17.1046 30.2334 16.6963C30.5783 16.4924 30.7877 16.3117 30.9014 16.1729C30.9557 16.1064 30.9805 16.0586 30.9912 16.0322C30.9963 16.0195 30.9982 16.011 30.999 16.0068C30.9998 16.003 31 16 31 16C31 16 30.9998 15.997 30.999 15.9932C30.9982 15.989 30.9963 15.9805 30.9912 15.9678C30.9805 15.9414 30.9557 15.8936 30.9014 15.8271C30.7877 15.6883 30.5783 15.5076 30.2334 15.3037C29.5425 14.8954 28.4763 14.4929 27.0713 14.1416C26.7028 14.0495 26.315 13.9617 25.9092 13.8789ZM7.07227 8.79395C6.4091 9.09237 5.78754 9.42002 5.21582 9.77734C3.10439 11.0971 1.73506 12.7299 1.22461 14.4639C2.29726 13.8202 4.02292 13.2616 6.19531 12.8398C6.37394 11.4132 6.67363 10.056 7.07227 8.79395ZM24.9268 8.79395C25.3254 10.0561 25.6251 11.4132 25.8037 12.8398C27.9761 13.2615 29.7016 13.8202 30.7744 14.4639C30.2639 12.73 28.8955 11.097 26.7842 9.77734C26.2122 9.41987 25.5902 9.09247 24.9268 8.79395ZM12.6543 7.23047C11.0915 7.44738 9.62629 7.81248 8.29688 8.29688C7.81248 9.62629 7.44738 11.0915 7.23047 12.6543C8.70769 12.4118 10.355 12.228 12.1182 12.1182C12.228 10.355 12.4118 8.70769 12.6543 7.23047ZM19.3447 7.23047C19.5872 8.70772 19.771 10.355 19.8809 12.1182C21.644 12.228 23.2913 12.4119 24.7686 12.6543C24.5516 11.0915 24.1866 9.62634 23.7021 8.29688C22.3727 7.81254 20.9075 7.44731 19.3447 7.23047ZM16 7C15.2127 7 14.4409 7.03749 13.6885 7.1084C13.434 8.58739 13.2392 10.26 13.123 12.0654C14.0563 12.0231 15.0178 12 16 12C16.9818 12 17.943 12.0231 18.876 12.0654C18.7599 10.26 18.565 8.58742 18.3105 7.1084C17.5584 7.03755 16.7869 7 16 7ZM11.5439 1.67285C6.84335 3.13325 3.13325 6.84335 1.67285 11.5439C2.99314 9.889 5.02636 8.4967 7.52051 7.52051C8.4967 5.02636 9.889 2.99314 11.5439 1.67285ZM20.4551 1.67285C22.1102 2.99307 23.5022 5.02622 24.4785 7.52051C26.9728 8.49663 29.0057 9.88902 30.3262 11.5439C28.8656 6.84318 25.156 3.13303 20.4551 1.67285ZM14.4639 1.22461C12.7299 1.73506 11.0971 3.10439 9.77734 5.21582C9.42002 5.78754 9.09237 6.4091 8.79395 7.07227C10.056 6.67363 11.4132 6.37394 12.8398 6.19531C13.2616 4.02292 13.8202 2.29726 14.4639 1.22461ZM17.5352 1.22461C18.179 2.2972 18.7374 4.02272 19.1592 6.19531C20.5858 6.37388 21.943 6.67368 23.2051 7.07227C22.9067 6.40924 22.5799 5.78744 22.2227 5.21582C20.9027 3.10403 19.2694 1.73486 17.5352 1.22461ZM15.9932 1.00098C15.989 1.00182 15.9805 1.00366 15.9678 1.00879C15.9414 1.01952 15.8936 1.04426 15.8271 1.09863C15.6883 1.21228 15.5076 1.42169 15.3037 1.7666C14.8954 2.45753 14.4929 3.52366 14.1416 4.92871C14.0496 5.29687 13.9616 5.68438 13.8789 6.08984C14.573 6.03238 15.2808 6 16 6C16.7188 6 17.4264 6.03244 18.1201 6.08984C18.0374 5.68445 17.9504 5.29681 17.8584 4.92871C17.5071 3.52366 17.1046 2.45753 16.6963 1.7666C16.4924 1.42169 16.3117 1.21228 16.1729 1.09863C16.1064 1.04426 16.0586 1.01952 16.0322 1.00879C16.0195 1.00366 16.011 1.00182 16.0068 1.00098C16.003 1.0002 16 1 16 1C16 1 15.997 1.0002 15.9932 1.00098Z"
    fill="#EDF2F4" />
</svg>